<svg data-v-2cb57da0="" version="1.0" xmlns="http://www.w3.org/2000/svg" xmlns:xlink="http://www.w3.org/1999/xlink"
    width="100%" height="100%" viewBox="0 0 242 60" preserveAspectRatio="xMidYMid meet"
    color-interpolation-filters="sRGB" style="margin: auto;">
    <g data-v-2cb57da0="" fill="#e16df5" class="icon-text-wrapper icon-svg-group iconsvg"
        transform="translate(5, 5)">
        <g class="iconsvg-imagesvg" transform="translate(0,0)" mask="url(#681591ce-ae4e-4150-9f3c-24757d89233f)">
            <g>
                <rect fill="#e16df5" fill-opacity="0" stroke-width="2" x="0" y="0" width="45.99999999999995"
                    height="42.5653980327383" class="image-rect"></rect> <svg filter="url(#colors259001800)" x="0" y="0"
                    width="45.99999999999995" height="42.5653980327383" filtersec="colorsf1193948349"
                    class="image-svg-svg primary" style="overflow: visible;"><svg xmlns="http://www.w3.org/2000/svg"
                        xmlns:xlink="http://www.w3.org/1999/xlink" version="1.1" x="0px" y="0px"
                        viewBox="0 3.5840001106262207 96 88.83200073242188" enable-background="new 0 0 96 96"
                        xml:space="preserve">
                        <path
                            d="M64.46,58.736c-0.968-9.221-5.571-17.376-12.344-23c4.147-2.164,8.852-3.408,13.844-3.408c4.272,0,8.332,0.908,12.017,2.524  C77.58,44.832,72.309,53.572,64.46,58.736z M48,86.393C41.632,81.628,37.22,74.4,36.18,66.132c3.696,1.345,7.664,2.12,11.82,2.12  c4.156,0,8.128-0.775,11.82-2.12C58.779,74.4,54.372,81.62,48,86.393z M18.016,34.856c3.688-1.62,7.752-2.528,12.024-2.528  c4.992,0,9.692,1.244,13.84,3.408c-6.776,5.624-11.376,13.78-12.344,23C23.688,53.572,18.42,44.836,18.016,34.856z M48,63.672  c-4.272,0-8.336-0.908-12.024-2.523C36.356,51.82,40.988,43.592,48,38.344c7.012,5.252,11.645,13.477,12.02,22.805  C56.336,62.764,52.271,63.672,48,63.672z M48,3.584c15.288,0,27.92,11.492,29.779,26.284c-3.695-1.344-7.663-2.12-11.819-2.12  c-6.584,0-12.72,1.884-17.964,5.084c-5.244-3.204-11.376-5.084-17.956-5.084c-4.16,0-8.128,0.776-11.824,2.124  C20.076,15.08,32.712,3.584,48,3.584z M30.044,92.416C13.476,92.416,0,78.936,0,62.368C0,51.876,5.412,42.64,13.58,37.272  c1.212,11.548,8.116,21.416,17.852,26.748c0.476,10.032,5.2,18.965,12.452,24.992C39.736,91.168,35.036,92.416,30.044,92.416  L30.044,92.416z M65.96,92.416c-4.992,0-9.696-1.248-13.844-3.416c7.256-6.023,11.979-14.956,12.452-24.992  c9.736-5.328,16.64-15.199,17.844-26.744C90.584,42.64,96,51.872,96,62.364C96,78.928,82.523,92.416,65.96,92.416z">
                        </path>
                    </svg></svg>
                <defs>
                    <filter id="colors259001800">
                        <feColorMatrix type="matrix"
                            values="0 0 0 0 0.19921875  0 0 0 0 0.19921875  0 0 0 0 0.19921875  0 0 0 1 0"
                            class="icon-fecolormatrix"></feColorMatrix>
                    </filter>
                    <filter id="colorsf1193948349">
                        <feColorMatrix type="matrix"
                            values="0 0 0 0 0.99609375  0 0 0 0 0.99609375  0 0 0 0 0.99609375  0 0 0 1 0"
                            class="icon-fecolormatrix"></feColorMatrix>
                    </filter>
                    <filter id="colorsb4593853269">
                        <feColorMatrix type="matrix" values="0 0 0 0 0  0 0 0 0 0  0 0 0 0 0  0 0 0 1 0"
                            class="icon-fecolormatrix"></feColorMatrix>
                    </filter>
                </defs>
            </g>
            <rect v-gra="id" width="58" height="54.565399169921875" transform="translate(-6, -6)"
                style="pointer-events:none;" fill="url(#0B0ym334Gzcq7aczpkMVE)"></rect>
        </g>
        <g transform="translate(55,14.817699432373047)">
            <g data-gra="path-name" fill-rule="" class="tp-name iconsvg-namesvg"
                fill="url(#0388f073-882a-42a8-b385-9753f1b6463f)">
                <g transform="scale(1)">
                    <g>
                        <path
                            d="M4.17-18.48L4.17-18.48Q7.2-22.17 12.06-22.17L12.06-22.17Q16.86-22.17 19.89-18.48L19.89-18.48Q22.92-14.85 22.92-9.93L22.92-9.93Q22.92-4.98 19.86-1.38L19.86-1.38Q16.77 2.28 12.06 2.28L12.06 2.28Q7.26 2.28 4.17-1.35L4.17-1.35Q1.17-4.98 1.17-9.93L1.17-9.93Q1.17-14.88 4.17-18.48ZM8.52-6.21L8.52-6.21Q9.84-4.59 12.06-4.59L12.06-4.59Q14.22-4.59 15.54-6.21L15.54-6.21Q16.86-7.74 16.86-10.32L16.86-10.32Q16.86-12.93 15.54-14.46L15.54-14.46Q14.1-16.05 12.06-16.05L12.06-16.05Q9.93-16.05 8.52-14.46L8.52-14.46Q7.2-12.93 7.2-10.32L7.2-10.32Q7.2-7.74 8.52-6.21ZM25.17-15.33L30.15-15.33 30.15-12.12Q30.84-13.74 31.74-14.45 32.64-15.15 34.11-15.33L34.11-15.33Q34.26-15.36 34.62-15.36L34.62-15.36Q35.25-15.36 35.86-15.16 36.48-14.97 36.87-14.64L36.87-14.64 36.87-9.33Q36.3-9.6 35.5-9.75 34.71-9.9 33.93-9.9L33.93-9.9Q33-9.9 32.28-9.67 31.56-9.45 30.9-8.88L30.9-8.88Q30.48-8.46 30.31-8.03 30.15-7.59 30.15-7.26L30.15-7.26 30.15 2.49 25.17 2.49 25.17-15.33ZM45.48-15.51L51.03-15.51 51.03-10.77 45.48-10.77 45.48-6.51Q45.48-5.04 46.14-4.35L46.14-4.35Q46.8-3.6 47.82-3.6L47.82-3.6Q49.41-3.6 51.03-4.59L51.03-4.59 51.03 1.11Q48.6 2.34 46.62 2.34L46.62 2.34Q45.24 2.34 44.08 1.88 42.93 1.41 42.21 0.57L42.21 0.57Q40.65-1.17 40.65-4.35L40.65-4.35 40.65-10.77 38.4-10.77 38.4-15.51 40.53-15.51 40.53-20.34 45.48-20.34 45.48-15.51ZM53.07-22.17L58.32-22.17 58.32-12.57Q60.27-15.57 63.3-15.57L63.3-15.57Q65.58-15.57 67.26-13.8L67.26-13.8Q68.82-11.94 68.82-8.76L68.82-8.76 68.82 2.28 63.6 2.28 63.6-6.24Q63.6-8.13 62.95-9.12 62.31-10.11 61.11-10.11L61.11-10.11Q60.42-10.11 59.77-9.53 59.13-8.94 58.72-8.13 58.32-7.32 58.32-6.75L58.32-6.75 58.32 2.28 53.07 2.28 53.07-22.17ZM73.11-12.69L73.11-12.69Q75.36-15.42 79.17-15.42L79.17-15.42Q82.89-15.42 85.17-12.69L85.17-12.69Q87.51-10.02 87.51-6.54L87.51-6.54Q87.51-2.88 85.14-0.27L85.14-0.27Q82.86 2.4 79.17 2.4L79.17 2.4Q75.45 2.4 73.11-0.21L73.11-0.21Q70.8-2.88 70.8-6.54L70.8-6.54Q70.8-10.02 73.11-12.69ZM76.89-4.62L76.89-4.62Q77.7-3.66 79.17-3.66L79.17-3.66Q80.52-3.66 81.39-4.62L81.39-4.62Q82.29-5.49 82.29-6.99L82.29-6.99Q82.29-8.52 81.39-9.36L81.39-9.36Q80.52-10.32 79.17-10.32L79.17-10.32Q77.7-10.32 76.89-9.36L76.89-9.36Q75.99-8.52 75.99-6.99L75.99-6.99Q75.99-5.49 76.89-4.62ZM95.55-22.23L99.48-7.5 103.56-22.23 110.4-22.23 102.42 2.22 96.36 2.22 88.74-22.23 95.55-22.23ZM121.2-2.79L121.2-2.79Q123.6-2.79 126.66-3.57L126.66-3.57 126.66 0.33Q124.14 2.55 120.24 2.55L120.24 2.55Q116.46 2.55 114.18 0.21L114.18 0.21Q111.93-2.22 111.93-6.24L111.93-6.24Q111.93-10.23 114.09-12.66L114.09-12.66Q116.07-15.21 119.46-15.21L119.46-15.21Q122.82-15.21 124.92-12.54L124.92-12.54Q125.85-11.43 126.22-9.9 126.6-8.37 126.6-6.21L126.6-6.21Q126.6-5.37 126.54-4.98L126.54-4.98 116.61-4.98Q116.64-4.05 117.88-3.42 119.13-2.79 121.2-2.79ZM119.46-10.92L119.46-10.92Q117.45-10.92 117.15-8.7L117.15-8.7 121.74-8.7Q121.59-9.84 121.03-10.38 120.48-10.92 119.46-10.92ZM128.7-15.27L133.59-15.27 133.59-12.27Q135.51-15.27 138.57-15.27L138.57-15.27Q140.85-15.27 142.53-13.47L142.53-13.47Q144.09-11.58 144.09-8.43L144.09-8.43 144.09 2.7 139.23 2.7 139.23-5.58Q139.23-7.56 138.64-8.54 138.06-9.51 136.71-9.51L136.71-9.51Q135.99-9.51 135.27-9.04 134.55-8.58 134.07-7.92 133.59-7.26 133.59-6.72L133.59-6.72 133.59 2.7 128.7 2.7 128.7-15.27ZM146.25-15.27L151.14-15.27 151.14-12.27Q153.06-15.27 156.12-15.27L156.12-15.27Q158.4-15.27 160.08-13.47L160.08-13.47Q161.64-11.58 161.64-8.43L161.64-8.43 161.64 2.7 156.78 2.7 156.78-5.58Q156.78-7.56 156.19-8.54 155.61-9.51 154.26-9.51L154.26-9.51Q153.54-9.51 152.82-9.04 152.1-8.58 151.62-7.92 151.14-7.26 151.14-6.72L151.14-6.72 151.14 2.7 146.25 2.7 146.25-15.27ZM177.69-9.12L177.69-9.12Q178.53-7.35 178.53-5.37L178.53-5.37Q178.53-3.06 177.54-1.38L177.54-1.38Q176.55 0.33 174.72 1.29L174.72 1.29Q172.95 2.28 170.55 2.28L170.55 2.28Q168.21 2.28 166.59 1.89 164.97 1.5 163.83 0.54L163.83 0.54 163.83-5.67Q165.12-4.65 166.31-4.11 167.49-3.57 168.66-3.57L168.66-3.57Q169.29-3.57 170.01-3.72L170.01-3.72Q171.09-4.14 171.74-4.72 172.38-5.31 172.38-6.18L172.38-6.18Q172.38-6.87 171.9-7.71L171.9-7.71Q171.27-8.31 170.37-8.54 169.47-8.76 167.37-8.76L167.37-8.76 166.14-8.76 166.14-13.23 170.58-17.19 163.83-17.19 163.83-22.17 177.57-22.17 177.57-17.58 172.5-12.84Q173.04-12.78 173.79-12.51 174.54-12.24 175.29-11.76L175.29-11.76Q176.73-10.86 177.69-9.12Z"
                            transform="translate(-1.1700000762939453, 22.229999542236328)" stroke-width="0.1"
                            stroke-linejoin="round" mask="url(#VwGufcAjAZDjCW4tVvzxJ)"></path>
                    </g>
                    <!---->
                    <!---->
                    <!---->
                    <!---->
                    <!---->
                    <!---->
                    <!---->
                </g>
            </g>
            <!---->
        </g>
    </g>
    <mask data-mask="name-path" id="VwGufcAjAZDjCW4tVvzxJ">
        <path
            d="M4.17-18.48L4.17-18.48Q7.2-22.17 12.06-22.17L12.06-22.17Q16.86-22.17 19.89-18.48L19.89-18.48Q22.92-14.85 22.92-9.93L22.92-9.93Q22.92-4.98 19.86-1.38L19.86-1.38Q16.77 2.28 12.06 2.28L12.06 2.28Q7.26 2.28 4.17-1.35L4.17-1.35Q1.17-4.98 1.17-9.93L1.17-9.93Q1.17-14.88 4.17-18.48ZM8.52-6.21L8.52-6.21Q9.84-4.59 12.06-4.59L12.06-4.59Q14.22-4.59 15.54-6.21L15.54-6.21Q16.86-7.74 16.86-10.32L16.86-10.32Q16.86-12.93 15.54-14.46L15.54-14.46Q14.1-16.05 12.06-16.05L12.06-16.05Q9.93-16.05 8.52-14.46L8.52-14.46Q7.2-12.93 7.2-10.32L7.2-10.32Q7.2-7.74 8.52-6.21ZM25.17-15.33L30.15-15.33 30.15-12.12Q30.84-13.74 31.74-14.45 32.64-15.15 34.11-15.33L34.11-15.33Q34.26-15.36 34.62-15.36L34.62-15.36Q35.25-15.36 35.86-15.16 36.48-14.97 36.87-14.64L36.87-14.64 36.87-9.33Q36.3-9.6 35.5-9.75 34.71-9.9 33.93-9.9L33.93-9.9Q33-9.9 32.28-9.67 31.56-9.45 30.9-8.88L30.9-8.88Q30.48-8.46 30.31-8.03 30.15-7.59 30.15-7.26L30.15-7.26 30.15 2.49 25.17 2.49 25.17-15.33ZM45.48-15.51L51.03-15.51 51.03-10.77 45.48-10.77 45.48-6.51Q45.48-5.04 46.14-4.35L46.14-4.35Q46.8-3.6 47.82-3.6L47.82-3.6Q49.41-3.6 51.03-4.59L51.03-4.59 51.03 1.11Q48.6 2.34 46.62 2.34L46.62 2.34Q45.24 2.34 44.08 1.88 42.93 1.41 42.21 0.57L42.21 0.57Q40.65-1.17 40.65-4.35L40.65-4.35 40.65-10.77 38.4-10.77 38.4-15.51 40.53-15.51 40.53-20.34 45.48-20.34 45.48-15.51ZM53.07-22.17L58.32-22.17 58.32-12.57Q60.27-15.57 63.3-15.57L63.3-15.57Q65.58-15.57 67.26-13.8L67.26-13.8Q68.82-11.94 68.82-8.76L68.82-8.76 68.82 2.28 63.6 2.28 63.6-6.24Q63.6-8.13 62.95-9.12 62.31-10.11 61.11-10.11L61.11-10.11Q60.42-10.11 59.77-9.53 59.13-8.94 58.72-8.13 58.32-7.32 58.32-6.75L58.32-6.75 58.32 2.28 53.07 2.28 53.07-22.17ZM73.11-12.69L73.11-12.69Q75.36-15.42 79.17-15.42L79.17-15.42Q82.89-15.42 85.17-12.69L85.17-12.69Q87.51-10.02 87.51-6.54L87.51-6.54Q87.51-2.88 85.14-0.27L85.14-0.27Q82.86 2.4 79.17 2.4L79.17 2.4Q75.45 2.4 73.11-0.21L73.11-0.21Q70.8-2.88 70.8-6.54L70.8-6.54Q70.8-10.02 73.11-12.69ZM76.89-4.62L76.89-4.62Q77.7-3.66 79.17-3.66L79.17-3.66Q80.52-3.66 81.39-4.62L81.39-4.62Q82.29-5.49 82.29-6.99L82.29-6.99Q82.29-8.52 81.39-9.36L81.39-9.36Q80.52-10.32 79.17-10.32L79.17-10.32Q77.7-10.32 76.89-9.36L76.89-9.36Q75.99-8.52 75.99-6.99L75.99-6.99Q75.99-5.49 76.89-4.62ZM95.55-22.23L99.48-7.5 103.56-22.23 110.4-22.23 102.42 2.22 96.36 2.22 88.74-22.23 95.55-22.23ZM121.2-2.79L121.2-2.79Q123.6-2.79 126.66-3.57L126.66-3.57 126.66 0.33Q124.14 2.55 120.24 2.55L120.24 2.55Q116.46 2.55 114.18 0.21L114.18 0.21Q111.93-2.22 111.93-6.24L111.93-6.24Q111.93-10.23 114.09-12.66L114.09-12.66Q116.07-15.21 119.46-15.21L119.46-15.21Q122.82-15.21 124.92-12.54L124.92-12.54Q125.85-11.43 126.22-9.9 126.6-8.37 126.6-6.21L126.6-6.21Q126.6-5.37 126.54-4.98L126.54-4.98 116.61-4.98Q116.64-4.05 117.88-3.42 119.13-2.79 121.2-2.79ZM119.46-10.92L119.46-10.92Q117.45-10.92 117.15-8.7L117.15-8.7 121.74-8.7Q121.59-9.84 121.03-10.38 120.48-10.92 119.46-10.92ZM128.7-15.27L133.59-15.27 133.59-12.27Q135.51-15.27 138.57-15.27L138.57-15.27Q140.85-15.27 142.53-13.47L142.53-13.47Q144.09-11.58 144.09-8.43L144.09-8.43 144.09 2.7 139.23 2.7 139.23-5.58Q139.23-7.56 138.64-8.54 138.06-9.51 136.71-9.51L136.71-9.51Q135.99-9.51 135.27-9.04 134.55-8.58 134.07-7.92 133.59-7.26 133.59-6.72L133.59-6.72 133.59 2.7 128.7 2.7 128.7-15.27ZM146.25-15.27L151.14-15.27 151.14-12.27Q153.06-15.27 156.12-15.27L156.12-15.27Q158.4-15.27 160.08-13.47L160.08-13.47Q161.64-11.58 161.64-8.43L161.64-8.43 161.64 2.7 156.78 2.7 156.78-5.58Q156.78-7.56 156.19-8.54 155.61-9.51 154.26-9.51L154.26-9.51Q153.54-9.51 152.82-9.04 152.1-8.58 151.62-7.92 151.14-7.26 151.14-6.72L151.14-6.72 151.14 2.7 146.25 2.7 146.25-15.27ZM177.69-9.12L177.69-9.12Q178.53-7.35 178.53-5.37L178.53-5.37Q178.53-3.06 177.54-1.38L177.54-1.38Q176.55 0.33 174.72 1.29L174.72 1.29Q172.95 2.28 170.55 2.28L170.55 2.28Q168.21 2.28 166.59 1.89 164.97 1.5 163.83 0.54L163.83 0.54 163.83-5.67Q165.12-4.65 166.31-4.11 167.49-3.57 168.66-3.57L168.66-3.57Q169.29-3.57 170.01-3.72L170.01-3.72Q171.09-4.14 171.74-4.72 172.38-5.31 172.38-6.18L172.38-6.18Q172.38-6.87 171.9-7.71L171.9-7.71Q171.27-8.31 170.37-8.54 169.47-8.76 167.37-8.76L167.37-8.76 166.14-8.76 166.14-13.23 170.58-17.19 163.83-17.19 163.83-22.17 177.57-22.17 177.57-17.58 172.5-12.84Q173.04-12.78 173.79-12.51 174.54-12.24 175.29-11.76L175.29-11.76Q176.73-10.86 177.69-9.12Z"
            stroke-width="0.1" stroke-linejoin="round" stroke="#000" fill="#fff"></path>
    </mask>
    <defs v-gra="od">
        <linearGradient x1="0" y1="1" x2="0" y2="0" id="0388f073-882a-42a8-b385-9753f1b6463f">
            <stop offset="0%" stop-color="#e16df5"></stop>
            <stop offset="100%" stop-color="#4ef8e7"></stop>
        </linearGradient>
        <filter id="42443b3f1de60f6b6fd3b6a9844b4764" filterUnits="userSpaceOnUse">
            <feColorMatrix type="matrix" values="0 0 0 0 0.99609375  0 0 0 0 0.99609375  0 0 0 0 0.99609375  0 0 0 1 0">
            </feColorMatrix>
        </filter>
    </defs>
    <defs v-gra="id">
        <filter id="7c09c268-9e40-49a5-b39e-f9e2f338c73c" filterUnits="userSpaceOnUse">
            <feColorMatrix type="matrix" values="0 0 0 0 0.99609375  0 0 0 0 0.99609375  0 0 0 0 0.99609375  0 0 0 1 0">
            </feColorMatrix>
        </filter>
        <linearGradient x1="0" y1="1" x2="0" y2="0" id="0B0ym334Gzcq7aczpkMVE">
            <stop offset="0%" stop-color="#e16df5"></stop>
            <stop offset="100%" stop-color="#4ef8e7"></stop>
        </linearGradient>
        <filter id="42443b3f1de60f6b6fd3b6a9844b4764" filterUnits="userSpaceOnUse">
            <feColorMatrix type="matrix" values="0 0 0 0 0.99609375  0 0 0 0 0.99609375  0 0 0 0 0.99609375  0 0 0 1 0">
            </feColorMatrix>
        </filter>
    </defs>
    <mask v-gra="im" id="681591ce-ae4e-4150-9f3c-24757d89233f">
        <g class="iconsvg-imagesvg" filter="url(#7c09c268-9e40-49a5-b39e-f9e2f338c73c)">
            <g>
                <rect fill="#e16df5" fill-opacity="0" stroke-width="2" x="0" y="0" width="45.99999999999995"
                    height="42.5653980327383" class="image-rect"></rect> <svg x="0" y="0" width="45.99999999999995"
                    height="42.5653980327383" filtersec="colorsf1193948349" class="image-svg-svg primary"
                    style="overflow: visible;"><svg xmlns="http://www.w3.org/2000/svg"
                        xmlns:xlink="http://www.w3.org/1999/xlink" version="1.1" x="0px" y="0px"
                        viewBox="0 3.5840001106262207 96 88.83200073242188" enable-background="new 0 0 96 96"
                        xml:space="preserve">
                        <path
                            d="M64.46,58.736c-0.968-9.221-5.571-17.376-12.344-23c4.147-2.164,8.852-3.408,13.844-3.408c4.272,0,8.332,0.908,12.017,2.524  C77.58,44.832,72.309,53.572,64.46,58.736z M48,86.393C41.632,81.628,37.22,74.4,36.18,66.132c3.696,1.345,7.664,2.12,11.82,2.12  c4.156,0,8.128-0.775,11.82-2.12C58.779,74.4,54.372,81.62,48,86.393z M18.016,34.856c3.688-1.62,7.752-2.528,12.024-2.528  c4.992,0,9.692,1.244,13.84,3.408c-6.776,5.624-11.376,13.78-12.344,23C23.688,53.572,18.42,44.836,18.016,34.856z M48,63.672  c-4.272,0-8.336-0.908-12.024-2.523C36.356,51.82,40.988,43.592,48,38.344c7.012,5.252,11.645,13.477,12.02,22.805  C56.336,62.764,52.271,63.672,48,63.672z M48,3.584c15.288,0,27.92,11.492,29.779,26.284c-3.695-1.344-7.663-2.12-11.819-2.12  c-6.584,0-12.72,1.884-17.964,5.084c-5.244-3.204-11.376-5.084-17.956-5.084c-4.16,0-8.128,0.776-11.824,2.124  C20.076,15.08,32.712,3.584,48,3.584z M30.044,92.416C13.476,92.416,0,78.936,0,62.368C0,51.876,5.412,42.64,13.58,37.272  c1.212,11.548,8.116,21.416,17.852,26.748c0.476,10.032,5.2,18.965,12.452,24.992C39.736,91.168,35.036,92.416,30.044,92.416  L30.044,92.416z M65.96,92.416c-4.992,0-9.696-1.248-13.844-3.416c7.256-6.023,11.979-14.956,12.452-24.992  c9.736-5.328,16.64-15.199,17.844-26.744C90.584,42.64,96,51.872,96,62.364C96,78.928,82.523,92.416,65.96,92.416z">
                        </path>
                    </svg></svg>
                <defs>
                    <filter id="colors259001800">
                        <feColorMatrix type="matrix"
                            values="0 0 0 0 0.19921875  0 0 0 0 0.19921875  0 0 0 0 0.19921875  0 0 0 1 0"
                            class="icon-fecolormatrix"></feColorMatrix>
                    </filter>
                    <filter id="colorsf1193948349">
                        <feColorMatrix type="matrix"
                            values="0 0 0 0 0.99609375  0 0 0 0 0.99609375  0 0 0 0 0.99609375  0 0 0 1 0"
                            class="icon-fecolormatrix"></feColorMatrix>
                    </filter>
                    <filter id="colorsb4593853269">
                        <feColorMatrix type="matrix" values="0 0 0 0 0  0 0 0 0 0  0 0 0 0 0  0 0 0 1 0"
                            class="icon-fecolormatrix"></feColorMatrix>
                    </filter>
                </defs>
            </g>
        </g>
    </mask>
</svg>